<?xml version="1.0" encoding="UTF-8" standalone="no"?>
<!DOCTYPE svg PUBLIC "-//W3C//DTD SVG 1.1//EN" "http://www.w3.org/Graphics/SVG/1.1/DTD/svg11.dtd">
<svg width="100%" height="100%" viewBox="0 0 1080 1080" version="1.1" xmlns="http://www.w3.org/2000/svg" xmlns:xlink="http://www.w3.org/1999/xlink" xml:space="preserve" xmlns:serif="http://www.serif.com/" style="fill-rule:evenodd;clip-rule:evenodd;stroke-linejoin:round;stroke-miterlimit:2;">
    <g transform="matrix(1.16379,0,0,1.16379,-93.1034,-74.4828)">
        <path d="M128,320L640,64L960,224L448,480L128,320Z" style="fill:rgb(255,179,191);"/>
    </g>
    <g transform="matrix(1.16379,0,0,1.16379,-93.1034,-74.4828)">
        <path d="M448,992L448,480L128,320L128,832L448,992Z" style="fill:rgb(255,127,148);"/>
    </g>
    <g transform="matrix(1.16379,0,0,1.16379,-93.1034,-74.4828)">
        <path d="M448,992L960,736L960,224L448,480L448,992Z" style="fill:rgb(255,151,168);"/>
    </g>
    <g transform="matrix(1.16379,0,0,1.16379,158.276,-200.172)">
        <path d="M544,560L544,816L656,760L656,504L544,560Z" style="fill:rgb(90,38,47);"/>
    </g>
    <g transform="matrix(1.16379,0,0,1.16379,-74.4828,-83.7931)">
        <path d="M544,560L544,816L656,760L656,504L544,560Z" style="fill:rgb(90,38,47);"/>
    </g>
</svg>
